<?xml version="1.0" standalone="no"?>
<!DOCTYPE svg PUBLIC "-//W3C//DTD SVG 20010904//EN"
 "http://www.w3.org/TR/2001/REC-SVG-20010904/DTD/svg10.dtd">
<svg version="1.0" xmlns="http://www.w3.org/2000/svg"
 width="737.000000pt" height="737.000000pt" viewBox="0 0 737.000000 737.000000"
 preserveAspectRatio="xMidYMid meet">
<metadata>
Created by potrace 1.14, written by Peter Selinger 2001-2017
</metadata>
<g transform="translate(0.000000,737.000000) scale(0.100000,-0.100000)"
fill="#000000" stroke="none">
<path d="M3459 7365 c-2 -2 -42 -6 -88 -9 -47 -4 -98 -9 -115 -11 -144 -20
-200 -29 -258 -41 -37 -7 -80 -16 -95 -19 -163 -29 -504 -139 -688 -221 -22
-10 -43 -17 -47 -16 -5 1 -8 -3 -8 -8 0 -6 -6 -10 -13 -10 -45 0 -420 -216
-604 -348 -124 -89 -146 -106 -297 -235 -65 -56 -257 -247 -329 -329 -282
-320 -545 -759 -683 -1142 -48 -134 -110 -330 -119 -378 -2 -11 -7 -28 -10
-38 -3 -10 -7 -27 -10 -37 -2 -10 -12 -63 -23 -118 -50 -246 -67 -431 -67
-725 1 -227 6 -322 25 -460 6 -41 13 -93 16 -115 3 -22 12 -74 21 -115 8 -41
18 -86 20 -100 47 -233 162 -564 289 -825 48 -99 187 -348 204 -365 3 -3 23
-32 44 -65 41 -64 187 -260 231 -310 14 -16 47 -55 73 -85 50 -58 272 -284
272 -277 0 3 21 -15 46 -39 25 -25 62 -57 82 -72 21 -15 42 -32 47 -38 20 -23
174 -133 280 -203 61 -39 115 -74 120 -79 6 -4 24 -14 40 -22 17 -8 37 -20 45
-26 17 -13 245 -129 330 -167 207 -93 534 -199 713 -233 18 -3 37 -7 42 -8 6
-2 28 -6 50 -10 22 -4 60 -11 85 -17 25 -5 68 -11 95 -14 28 -3 64 -7 80 -9
162 -21 581 -28 745 -13 377 36 749 126 1083 263 119 48 355 164 422 205 22
14 47 28 55 32 28 11 326 210 340 226 3 3 30 25 60 48 173 133 401 353 540
521 19 23 45 53 58 67 12 13 22 27 22 29 0 3 10 17 23 32 64 74 227 319 298
450 67 124 126 241 148 299 14 33 27 65 31 70 6 9 24 55 96 248 36 98 121 426
129 497 1 14 5 34 8 45 3 11 9 40 12 65 3 25 10 72 15 105 19 126 24 238 24
485 -1 231 -3 287 -19 415 -3 22 -8 58 -10 80 -3 22 -7 51 -10 65 -2 14 -7 41
-10 60 -48 310 -176 694 -339 1019 -92 183 -291 508 -318 519 -4 2 -8 8 -8 13
0 5 -8 17 -17 28 -10 10 -28 31 -40 47 -12 16 -30 39 -40 51 -10 12 -25 31
-33 41 -95 122 -349 377 -471 474 -19 14 -47 38 -64 52 -16 15 -84 65 -150
111 -66 47 -125 90 -132 95 -7 6 -16 10 -21 10 -5 0 -17 9 -27 20 -10 11 -22
20 -27 20 -5 0 -25 11 -46 23 -112 71 -347 189 -497 250 -101 41 -301 112
-343 122 -9 2 -60 16 -112 30 -52 15 -106 28 -120 31 -14 2 -36 7 -50 11 -14
3 -29 7 -35 8 -50 12 -245 42 -320 50 -33 4 -71 9 -85 11 -29 6 -556 14 -561
9z"/>
</g>
</svg>
